
<svg width="222" height="35" viewBox="0 0 222 35" fill="none" xmlns="http://www.w3.org/2000/svg">
<path d="M84.996 26.2563H81.244V10.0983C81.244 8.9093 80.471 8.3053 78.945 8.3053H76.876C75.02 8.3053 73.356 8.6023 72.508 8.8163V26.2563H68.757V10.0983C68.757 8.9093 67.983 8.3053 66.457 8.3053H64.155C62.445 8.3053 61.01 8.5853 60.021 8.8233V26.2563H56.269V5.3343H59.84L59.93 6.4213C61.231 5.4383 63.081 4.8653 65.013 4.8653H67.081C69.272 4.8653 70.92 5.6113 71.782 6.9743C73.034 5.6643 75.217 4.8653 77.618 4.8653H79.569C83.018 4.8653 84.996 6.6453 84.996 9.7463V26.2563Z" fill="white"/>
<path d="M103.816 5.33435H100.064V26.2564H103.816V5.33435Z" fill="white"/>
<path d="M124.648 34.5294H121.009L124.325 25.6324L116.237 5.33435H120.195L126.229 20.8564L131.619 5.33435H135.337L124.648 34.5294Z" fill="white"/>
<path d="M158.116 26.7243H154.214C149.624 26.7243 146.992 24.2193 146.992 19.8523V11.7363C146.992 7.3703 149.624 4.8653 154.214 4.8653H158.116C162.491 4.8653 165.104 7.5213 165.104 11.9703V19.6193C165.104 24.0683 162.491 26.7243 158.116 26.7243ZM153.589 7.9923C151.112 7.9923 150.743 10.1183 150.743 11.3853V20.1653C150.743 21.4463 151.112 23.5973 153.589 23.5973H158.662C160.647 23.5973 161.352 21.7703 161.352 20.2043V11.3853C161.352 9.8193 160.647 7.9923 158.662 7.9923H153.589Z" fill="white"/>
<path d="M183.3 26.2563H179.548V5.33434H182.992L183.158 6.75834C184.651 5.77534 187.049 5.02234 188.8 5.02234C189.348 5.02234 190.803 5.06034 191.803 5.18034L192.08 5.21334V8.46134H189.151C186.16 8.46134 184.393 8.98234 183.3 9.41334V26.2563Z" fill="white"/>
<path d="M212.965 26.7243H209.843C206.394 26.7243 204.416 24.9453 204.416 21.8433V5.33331H208.168V21.4923C208.168 22.6813 208.941 23.2853 210.467 23.2853H213.628C215.451 23.2853 217.064 23.0233 217.996 22.7753V5.33331H221.748V26.2553H218.178L218.087 25.1683C216.784 26.1513 214.92 26.7243 212.965 26.7243Z" fill="white"/>
<path d="M26.245 8.18032C25.219 9.48132 23.703 10.2423 22.087 10.2693L12.4 10.4313C11.708 10.4423 11.051 10.7793 10.596 11.3543L5.607 17.6723L3.201 15.7723L8.19 9.45432C9.217 8.15332 10.733 7.39232 12.348 7.36432L22.036 7.20332C22.728 7.19232 23.385 6.85532 23.839 6.28032L25.858 3.72432C19.683 -1.51368 10.426 -1.22968 4.599 4.59632C-1.109 10.3043 -1.501 19.3073 3.408 25.4763L5.176 23.2383C6.203 21.9373 7.719 21.1753 9.335 21.1493L19.022 20.9873C19.714 20.9753 20.371 20.6383 20.825 20.0633L25.815 13.7463L28.221 15.6463L23.232 21.9643C22.205 23.2643 20.689 24.0263 19.073 24.0533L9.386 24.2153C8.694 24.2263 8.037 24.5633 7.583 25.1383L5.564 27.6943C11.739 32.9313 20.996 32.6483 26.823 26.8213C32.531 21.1133 32.923 12.1113 28.013 5.94132L26.245 8.18032ZM19.275 16.1813L16.183 19.2733C15.922 19.5343 15.499 19.5343 15.239 19.2733L12.147 16.1813C11.886 15.9203 11.886 15.4973 12.147 15.2373L15.239 12.1453C15.499 11.8843 15.922 11.8843 16.183 12.1453L19.275 15.2373C19.536 15.4973 19.536 15.9203 19.275 16.1813Z" fill="white"/>
</svg>