<svg width="20" height="20" viewBox="0 0 20 20" fill="none" xmlns="http://www.w3.org/2000/svg">
<path d="M5.14713 4.95383C5.27833 4.90751 5.41347 4.87319 5.55088 4.8513C5.6559 4.85051 5.75975 4.87336 5.85474 4.91816C5.94972 4.96296 6.03341 5.02856 6.0996 5.1101C7.35306 6.36356 8.60653 7.61703 9.85999 8.87049L10.0014 9.01191L10.1315 8.8818C11.3654 7.6479 12.6043 6.41754 13.8339 5.17939C13.9487 5.02606 14.1146 4.91898 14.3016 4.87758C14.4885 4.83619 14.6842 4.86325 14.8529 4.95383L15.0459 5.14687C15.0922 5.27807 15.1266 5.41321 15.1484 5.55062C15.1494 5.6557 15.1267 5.75965 15.0821 5.85477C15.0374 5.94988 14.9719 6.03371 14.8904 6.10005C13.6369 7.35351 12.3834 8.60698 11.13 9.86044L10.9885 10.0019L14.8981 13.9115C15.0306 14.0225 15.1177 14.1783 15.143 14.3492C15.1683 14.5202 15.13 14.6946 15.0353 14.8392C14.9844 14.9161 14.9188 14.9821 14.8423 15.0336C14.7657 15.085 14.6798 15.1208 14.5894 15.139C14.499 15.1571 14.4059 15.1572 14.3154 15.1392C14.225 15.1213 14.139 15.0856 14.0623 15.0343C13.9926 14.9828 13.9273 14.9256 13.8672 14.8632L9.99717 10.9932L9.86777 11.1226C8.60771 12.3827 7.34764 13.6428 6.08758 14.9028C5.97661 15.0356 5.82075 15.123 5.64959 15.1484C5.47844 15.1738 5.30391 15.1355 5.15915 15.0407C5.08231 14.9898 5.01627 14.9243 4.96482 14.8479C4.91337 14.7714 4.87751 14.6856 4.85931 14.5952C4.84112 14.5049 4.84093 14.4119 4.85877 14.3215C4.87661 14.2311 4.91213 14.1451 4.96328 14.0684C5.01474 13.9987 5.07199 13.9334 5.1344 13.8733C6.37843 12.6292 7.62224 11.3854 8.8658 10.1419L9.00864 9.99903L8.87994 9.87034C7.64604 8.63644 6.41568 7.39759 5.17753 6.16793C5.02409 6.05294 4.91705 5.88667 4.87591 5.69939C4.83477 5.51211 4.86226 5.31628 4.95338 5.14757L5.14713 4.95383Z" fill="white"/>
</svg>

