<svg width="18" height="18" viewBox="0 0 18 18" fill="none" xmlns="http://www.w3.org/2000/svg">
<path d="M0 8.824C0.0769208 8.66274 0.168294 8.50877 0.273 8.364C0.367815 8.26761 0.483127 8.19383 0.610373 8.14812C0.737618 8.10242 0.873525 8.08597 1.008 8.1C3.28733 8.1 5.56633 8.1 7.845 8.1H8.1V7.863C8.1 5.619 8.108 3.375 8.094 1.131C8.05891 0.886151 8.11345 0.636867 8.24759 0.429046C8.38173 0.221225 8.58643 0.0688586 8.824 0L9.176 0C9.33725 0.0769401 9.49121 0.168313 9.636 0.273C9.7331 0.367446 9.80764 0.482593 9.85404 0.609857C9.90044 0.73712 9.91752 0.873217 9.904 1.008C9.904 3.28733 9.904 5.56667 9.904 7.846V8.1H17.012C17.2335 8.08037 17.4546 8.14274 17.6332 8.27527C17.8118 8.4078 17.9356 8.60128 17.981 8.819C18.0056 8.93525 18.0067 9.05523 17.9843 9.17192C17.9619 9.28861 17.9165 9.39965 17.8507 9.49856C17.7848 9.59746 17.6999 9.68223 17.6009 9.7479C17.5019 9.81357 17.3907 9.85882 17.274 9.881C17.1641 9.89754 17.0531 9.9049 16.942 9.903H9.9V10.138C9.9 12.4293 9.9 14.7203 9.9 17.011C9.91985 17.2326 9.85757 17.4537 9.72501 17.6324C9.59244 17.8111 9.39883 17.9348 9.181 17.98C9.06476 18.0046 8.94479 18.0058 8.82809 17.9835C8.71139 17.9612 8.60031 17.9158 8.50134 17.8501C8.40237 17.7843 8.3175 17.6995 8.25168 17.6006C8.18586 17.5017 8.14041 17.3907 8.118 17.274C8.1014 17.1641 8.09404 17.0531 8.096 16.942C8.096 14.68 8.096 12.4183 8.096 10.157V9.9H7.864C5.62 9.9 3.376 9.892 1.132 9.906C0.887022 9.94113 0.637597 9.88662 0.429609 9.7525C0.221622 9.61837 0.0690638 9.41365 0 9.176L0 8.824Z" fill="#2F3138"/>
</svg>
