<svg width="9" height="16" viewBox="0 0 9 16" fill="none" xmlns="http://www.w3.org/2000/svg">
<path d="M1.59996 8.22911C1.67245 8.27051 1.74107 8.31837 1.80496 8.37211C3.77562 10.3434 5.74562 12.3131 7.71496 14.2811C8.08496 14.6511 8.12896 15.0431 7.83296 15.3401C7.53696 15.6371 7.14196 15.5981 6.77396 15.2301L0.299956 8.75811C0.207536 8.6936 0.132059 8.60773 0.0799421 8.50779C0.0278255 8.40786 0.000610352 8.29682 0.000610352 8.18411C0.000610352 8.0714 0.0278255 7.96036 0.0799421 7.86043C0.132059 7.76049 0.207536 7.67462 0.299956 7.61011C2.47329 5.43811 4.64562 3.26544 6.81696 1.09211C6.90297 0.986139 7.01808 0.907625 7.14814 0.866228C7.27819 0.824831 7.41751 0.822356 7.54896 0.859109C7.65307 0.889265 7.7482 0.944486 7.82601 1.01994C7.90383 1.09539 7.96197 1.18877 7.99532 1.2919C8.02868 1.39503 8.03624 1.50476 8.01735 1.61149C7.99846 1.71822 7.95369 1.8187 7.88696 1.90411C7.82895 1.9747 7.76649 2.0415 7.69996 2.10411C5.73529 4.06744 3.76862 6.03144 1.79996 7.99611C1.73759 8.04952 1.67067 8.09737 1.59996 8.13911V8.22911Z" fill="#2F3138"/>
</svg>