<svg width="9" height="16" viewBox="0 0 9 16" fill="none" xmlns="http://www.w3.org/2000/svg">
<path d="M6.4269 8.13905C6.3544 8.09765 6.28579 8.04979 6.2219 7.99605C4.25123 6.02472 2.28123 4.05506 0.3119 2.08706C-0.0581007 1.71706 -0.1021 1.32506 0.1939 1.02806C0.4899 0.731055 0.8849 0.770055 1.2529 1.13805L7.7269 7.61005C7.81932 7.67456 7.8948 7.76044 7.94691 7.86037C7.99903 7.96031 8.02625 8.07135 8.02625 8.18405C8.02625 8.29676 7.99903 8.4078 7.94691 8.50774C7.8948 8.60767 7.81932 8.69354 7.7269 8.75805C5.55357 10.9301 3.38123 13.1027 1.2099 15.2761C1.12389 15.382 1.00877 15.4605 0.878716 15.5019C0.748662 15.5433 0.609343 15.5458 0.4779 15.5091C0.373789 15.4789 0.278659 15.4237 0.200841 15.3482C0.123023 15.2728 0.0648899 15.1794 0.0315332 15.0763C-0.00182343 14.9731 -0.00938702 14.8634 0.00950527 14.7567C0.0283976 14.6499 0.0731692 14.5495 0.1399 14.4641C0.197902 14.3935 0.260363 14.3267 0.3269 14.2641C2.29157 12.3007 4.25823 10.3367 6.2269 8.37205C6.28927 8.31864 6.35619 8.27079 6.4269 8.22905V8.13905Z" fill="#2F3138"/>
</svg>
