<svg xmlns="http://www.w3.org/2000/svg" xmlns:xlink="http://www.w3.org/1999/xlink" width="8.791" height="5" viewBox="0 0 8.791 5">
  <g id="arrow" transform="translate(8.791 5) rotate(180)">
    <g id="Group_1" data-name="Group 1">
      <path id="Path_1" data-name="Path 1" d="M8.791,4.47a.7.7,0,0,1-.234.4.612.612,0,0,1-.755,0,1.438,1.438,0,0,1-.121-.109q-1.6-1.6-3.209-3.2a.58.58,0,0,1-.059-.084H4.377a.577.577,0,0,1-.059.084Q2.706,3.169,1.092,4.78a.622.622,0,0,1-.678.183.588.588,0,0,1-.379-.38C.022,4.546.012,4.508,0,4.47V4.3a.921.921,0,0,1,.293-.461Q2.11,2.029,3.922.217a.608.608,0,0,1,.67-.18A.714.714,0,0,1,4.848.2q1.873,1.861,3.74,3.728a.786.786,0,0,1,.2.37Z" transform="translate(0 0.001)"/>
    </g>
  </g>
</svg>
